<svg width="294" height="193" viewBox="0 0 294 193" fill="none" xmlns="http://www.w3.org/2000/svg">
<path d="M238.874 128.667C238.874 140.854 232.456 146.827 220.499 147.038V147.046H73.5011V147.038C61.5436 146.827 55.1261 140.854 55.1261 128.666C55.1261 116.48 61.5436 110.505 73.5011 110.296V110.285H220.499V110.296C232.456 110.505 238.874 116.48 238.874 128.666V128.667ZM220.499 156.248V156.238H73.5011V156.25C61.5436 156.459 55.1261 162.434 55.1261 174.623C55.1261 186.811 61.5436 192.781 73.5011 192.992V193H220.499V192.989C232.456 192.781 238.874 186.808 238.874 174.619C238.874 162.43 232.456 156.459 220.499 156.25V156.248ZM266.436 55.1635V55.1532C254.481 55.3646 248.061 61.3372 248.061 73.5261V174.619C248.061 186.808 254.481 192.777 266.436 192.989V192.97C284.371 192.339 294 174.42 294 137.857V91.9048C294 67.5305 284.372 55.5863 266.438 55.1624L266.436 55.1635ZM27.5625 55.152V55.1635C9.62965 55.5852 0 67.5293 0 91.9048V137.857C0 174.42 9.6285 192.337 27.5625 192.969V192.989C39.52 192.779 45.9375 186.807 45.9375 174.619V73.5238C45.9375 61.3361 39.52 55.3634 27.5625 55.152ZM266.438 45.9524C266.438 15.4825 250.39 0.551429 220.5 0.024125V0H73.5V0.024125C43.6119 0.552577 27.5625 15.4825 27.5625 45.9535V45.9685C45.4976 46.2844 55.1261 55.2428 55.1261 73.525C55.1261 91.806 64.7546 100.763 82.6886 101.08V101.095H211.314V101.081C229.245 100.766 238.874 91.8071 238.874 73.5261C238.874 55.244 248.502 46.2855 266.436 45.9696V45.9524H266.438Z" fill="#E42528"/>
</svg>
